<?xml version="1.0" encoding="UTF-8" standalone="no"?>
<!DOCTYPE svg PUBLIC "-//W3C//DTD SVG 20010904//EN"
              "http://www.w3.org/TR/2001/REC-SVG-20010904/DTD/svg10.dtd">

<svg xmlns="http://www.w3.org/2000/svg"
     width="3in" height="3in"
     viewBox="0 0 900 900">
  <path id="Selection #4"
        fill="none" stroke="black" stroke-width="1"
        d="M 441.00,443.91
           C 445.57,445.30 459.83,445.91 464.00,443.91
             467.85,441.90 481.06,427.94 485.00,424.00
             485.00,424.00 519.00,390.00 519.00,390.00
             519.00,390.00 535.00,374.00 535.00,374.00
             537.38,371.61 541.04,368.31 541.94,365.00
             543.18,360.44 539.29,349.12 533.00,350.84
             529.70,351.75 524.52,357.48 522.00,360.00
             522.00,360.00 501.00,381.00 501.00,381.00
             501.00,381.00 476.00,406.00 476.00,406.00
             476.00,406.00 453.00,429.00 453.00,429.00
             448.38,433.62 443.15,437.69 441.00,443.91 Z
           M 495.00,444.00
           C 501.52,445.85 521.09,445.00 529.00,445.00
             531.90,445.00 539.47,445.45 541.69,443.98
             544.45,442.14 543.99,437.91 544.00,435.00
             544.00,435.00 544.00,406.00 544.00,406.00
             544.00,403.62 544.55,397.28 540.85,397.34
             537.71,397.39 530.39,405.61 528.00,408.00
             528.00,408.00 506.00,430.00 506.00,430.00
             501.50,434.50 497.10,437.85 495.00,444.00 Z
           M 439.00,467.09
           C 434.43,465.70 420.17,465.09 416.00,467.09
             412.18,469.09 399.84,482.16 396.00,486.00
             396.00,486.00 364.00,518.00 364.00,518.00
             364.00,518.00 348.00,534.00 348.00,534.00
             346.18,535.85 342.41,539.36 342.05,541.98
             341.30,547.55 352.89,550.57 357.00,549.56
             360.82,548.61 364.27,544.71 367.00,542.00
             367.00,542.00 384.00,525.00 384.00,525.00
             384.00,525.00 407.00,502.00 407.00,502.00
             407.00,502.00 428.00,481.00 428.00,481.00
             432.50,476.50 436.90,473.15 439.00,467.09 Z
           M 390.00,549.00
           C 395.47,550.55 401.35,550.00 407.00,550.00
             407.00,550.00 436.00,550.00 436.00,550.00
             436.00,550.00 500.00,550.00 500.00,550.00
             524.01,549.96 543.72,526.28 544.00,503.00
             544.00,503.00 544.00,476.00 544.00,476.00
             543.98,466.94 543.06,466.02 534.00,466.00
             534.00,466.00 477.00,466.00 477.00,466.00
             475.00,466.03 472.89,466.02 471.00,466.74
             466.69,468.38 456.77,479.23 453.00,483.00
             453.00,483.00 409.00,527.00 409.00,527.00
             403.24,532.76 392.54,541.56 390.00,549.00 Z" />
</svg>
