<?xml version="1.0" encoding="UTF-8" standalone="no"?>
<!DOCTYPE svg PUBLIC "-//W3C//DTD SVG 20010904//EN"
              "http://www.w3.org/TR/2001/REC-SVG-20010904/DTD/svg10.dtd">

<svg xmlns="http://www.w3.org/2000/svg"
     width="3in" height="3in"
     viewBox="0 0 900 900">
  <path id="Selection #3"
        fill="none" stroke="black" stroke-width="1"
        d="M 133.00,443.91
           C 137.62,445.31 152.82,445.92 157.00,443.91
             160.85,441.90 174.06,427.94 178.00,424.00
             178.00,424.00 212.00,390.00 212.00,390.00
             212.00,390.00 229.00,373.00 229.00,373.00
             231.33,370.63 234.88,367.42 235.39,364.00
             235.70,361.91 232.86,346.42 224.00,351.74
             221.42,353.29 215.44,359.56 213.00,362.00
             213.00,362.00 193.00,382.00 193.00,382.00
             193.00,382.00 168.00,407.00 168.00,407.00
             168.00,407.00 146.00,429.00 146.00,429.00
             141.25,433.75 136.21,438.02 133.00,443.91 Z
           M 297.31,352.02
           C 293.93,355.65 295.00,361.27 295.00,366.00
             295.00,366.00 295.00,401.00 295.00,401.00
             295.00,401.00 295.00,540.00 295.00,540.00
             295.00,542.19 294.79,545.84 296.02,547.69
             298.01,550.67 303.99,550.67 305.98,547.69
             307.21,545.84 307.00,542.19 307.00,540.00
             307.00,540.00 307.00,396.00 307.00,396.00
             307.00,396.00 307.00,367.00 307.00,367.00
             307.00,364.31 307.30,356.20 306.40,354.15
             304.72,350.29 300.51,350.82 297.31,352.02 Z
           M 435.22,364.02
           C 431.54,367.31 430.40,372.47 428.60,377.00
             428.60,377.00 418.32,404.00 418.32,404.00
             418.32,404.00 382.20,498.00 382.20,498.00
             382.20,498.00 371.42,526.00 371.42,526.00
             370.56,528.28 368.05,534.24 369.36,536.43
             370.55,538.42 374.96,538.00 377.00,538.00
             377.00,538.00 384.00,538.00 384.00,538.00
             393.36,537.82 393.63,531.73 396.34,524.00
             396.34,524.00 404.31,502.00 404.31,502.00
             405.43,498.84 406.63,493.69 409.27,491.60
             411.67,489.71 415.12,490.01 418.00,490.00
             418.00,490.00 472.00,490.00 472.00,490.00
             474.90,490.01 478.31,489.70 480.73,491.60
             483.20,493.54 485.03,499.01 486.19,502.00
             486.19,502.00 494.95,525.00 494.95,525.00
             497.77,532.56 497.86,537.83 507.00,538.00
             507.00,538.00 514.00,538.00 514.00,538.00
             516.11,538.00 520.58,538.38 521.89,536.40
             523.38,534.15 520.56,528.38 519.68,526.00
             519.68,526.00 509.20,499.00 509.20,499.00
             509.20,499.00 468.05,392.00 468.05,392.00
             468.05,392.00 460.80,373.00 460.80,373.00
             459.88,370.67 458.33,366.19 456.50,364.60
             453.47,361.96 438.98,362.65 435.22,364.02 Z
           M 550.31,364.02
           C 547.00,367.57 548.00,372.37 548.00,377.00
             548.00,377.00 548.00,407.00 548.00,407.00
             548.00,407.00 548.00,528.00 548.00,528.00
             548.01,535.22 547.85,537.85 556.00,538.00
             556.00,538.00 604.00,538.00 604.00,538.00
             634.08,537.95 663.65,522.24 678.77,496.00
             685.30,484.66 689.84,469.12 690.00,456.00
             690.00,456.00 690.00,441.00 690.00,441.00
             689.96,418.14 681.03,393.09 662.00,379.43
             657.03,375.86 651.68,372.75 646.00,370.45
             636.29,366.52 620.47,363.13 610.00,363.00
             610.00,363.00 570.00,363.00 570.00,363.00
             564.50,363.00 555.18,362.17 550.31,364.02 Z
           M 725.31,364.02
           C 722.00,367.57 723.00,372.37 723.00,377.00
             723.00,377.00 723.00,407.00 723.00,407.00
             723.00,407.00 723.00,528.00 723.00,528.00
             723.00,530.19 722.79,533.84 724.02,535.69
             726.38,539.23 739.73,538.00 744.00,538.00
             744.00,538.00 807.00,538.00 807.00,538.00
             814.21,537.99 816.85,538.15 817.00,530.00
             817.15,521.44 817.27,519.06 808.00,519.00
             808.00,519.00 756.00,519.00 756.00,519.00
             752.82,518.99 748.87,519.38 746.60,516.69
             744.33,514.00 745.00,506.55 745.00,503.00
             745.00,503.00 745.00,470.00 745.00,470.00
             745.02,462.34 745.30,459.16 754.00,459.00
             754.00,459.00 798.00,459.00 798.00,459.00
             805.21,458.99 807.85,459.15 808.00,451.00
             808.13,443.53 808.60,440.16 800.00,440.00
             800.00,440.00 756.00,440.00 756.00,440.00
             752.82,439.99 748.87,440.38 746.60,437.69
             744.39,435.06 745.00,428.41 745.00,425.00
             745.00,425.00 745.00,393.00 745.00,393.00
             745.02,385.34 745.30,382.16 754.00,382.00
             754.00,382.00 803.00,382.00 803.00,382.00
             812.79,381.98 813.17,380.65 813.00,371.00
             812.82,361.38 809.27,363.00 794.00,363.00
             794.00,363.00 748.00,363.00 748.00,363.00
             742.17,363.00 730.28,362.13 725.31,364.02 Z
           M 851.31,364.02
           C 848.00,367.57 849.00,372.37 849.00,377.00
             849.00,377.00 849.00,407.00 849.00,407.00
             849.00,407.00 849.00,528.00 849.00,528.00
             849.01,530.54 848.68,534.48 850.60,536.40
             853.15,538.95 863.89,538.82 865.98,535.69
             867.21,533.84 867.00,530.19 867.00,528.00
             867.00,528.00 867.00,399.00 867.00,399.00
             867.00,399.00 867.00,372.00 867.00,372.00
             866.99,370.00 867.12,367.02 865.98,365.31
             863.61,361.76 854.74,362.72 851.31,364.02 Z
           M 573.15,382.60
           C 578.10,381.48 594.94,381.93 601.00,382.00
             619.11,382.22 641.21,387.83 653.38,402.04
             674.23,426.35 672.65,477.17 649.91,499.91
             636.34,513.48 615.75,518.97 597.00,519.00
             597.00,519.00 580.00,519.00 580.00,519.00
             577.46,518.99 573.52,519.32 571.60,517.40
             569.96,515.77 570.04,513.14 570.00,511.00
             570.00,511.00 570.00,494.00 570.00,494.00
             570.00,494.00 570.00,414.00 570.00,414.00
             570.00,414.00 570.00,390.00 570.00,390.00
             570.08,386.04 569.82,384.92 573.15,382.60 Z
           M 446.00,392.00
           C 446.00,392.00 467.34,450.00 467.34,450.00
             468.58,453.53 474.51,466.56 472.22,469.40
             470.66,471.33 466.28,471.00 464.00,471.00
             464.00,471.00 426.00,471.00 426.00,471.00
             424.04,471.00 420.15,471.23 418.60,469.98
             415.33,467.33 421.10,454.53 422.42,451.00
             422.42,451.00 444.00,392.00 444.00,392.00
             444.00,392.00 446.00,392.00 446.00,392.00 Z
           M 187.00,444.00
           C 193.57,445.87 213.97,445.00 222.00,445.00
             224.90,445.00 232.47,445.45 234.69,443.98
             237.45,442.14 236.99,437.91 237.00,435.00
             237.00,435.00 237.00,405.00 237.00,405.00
             237.00,403.07 237.36,398.24 235.40,397.17
             232.16,395.40 224.20,404.80 222.00,407.00
             222.00,407.00 200.00,429.00 200.00,429.00
             195.25,433.75 190.21,438.02 187.00,444.00 Z
           M 133.00,467.09
           C 128.38,465.69 113.18,465.08 109.00,467.09
             105.15,469.10 91.94,483.06 88.00,487.00
             88.00,487.00 57.00,518.00 57.00,518.00
             57.00,518.00 40.00,535.00 40.00,535.00
             38.13,536.91 34.67,540.01 34.74,542.90
             34.87,547.90 46.12,550.57 50.00,549.57
             53.87,548.56 57.23,544.75 60.00,542.00
             60.00,542.00 77.00,525.00 77.00,525.00
             77.00,525.00 101.00,501.00 101.00,501.00
             108.45,493.55 128.78,474.85 133.00,467.09 Z
           M 82.00,549.00
           C 87.47,550.55 93.35,550.00 99.00,550.00
             99.00,550.00 128.00,550.00 128.00,550.00
             128.00,550.00 194.00,550.00 194.00,550.00
             217.55,549.96 236.73,525.53 237.00,503.00
             237.00,503.00 237.00,476.00 237.00,476.00
             236.98,467.76 236.74,466.06 228.00,466.00
             228.00,466.00 172.00,466.00 172.00,466.00
             169.55,466.00 166.28,465.87 164.00,466.74
             159.60,468.42 148.91,480.09 145.00,484.00
             145.00,484.00 103.00,526.00 103.00,526.00
             96.88,532.12 85.85,541.82 82.00,549.00 Z" />
</svg>
